HIERARCHY
ROOT Hips
{
	OFFSET 0.000000 97.167313 0.000000
	CHANNELS 6 Xposition Yposition Zposition Xrotation Yrotation Zrotation
	JOINT Spine
	{
		OFFSET 0.000000 13.784798 0.064400
		CHANNELS 3 Xrotation Yrotation Zrotation
		JOINT Spine1
		{
			OFFSET 0.000000 12.037903 0.404700
			CHANNELS 3 Xrotation Yrotation Zrotation
			JOINT Spine2
			{
				OFFSET 0.000000 17.795601 0.420200
				CHANNELS 3 Xrotation Yrotation Zrotation
				JOINT Neck
				{
					OFFSET 0.000000 39.131302 11.954600
					CHANNELS 3 Xrotation Yrotation Zrotation
					JOINT Head
					{
						OFFSET 0.000000 14.456192 15.627699
						CHANNELS 3 Xrotation Yrotation Zrotation
						JOINT HeadTop_End
						{
							OFFSET 0.000000 15.703506 7.603401
							CHANNELS 3 Xrotation Yrotation Zrotation
							End Site
							{
								OFFSET 0.000000 17.447403 0.000000
							}
						}
					}
				}
				JOINT LeftShoulder
				{
					OFFSET 17.399500 24.608795 1.168800
					CHANNELS 3 Xrotation Yrotation Zrotation
					JOINT LeftArm
					{
						OFFSET 18.980635 5.765305 1.818600
						CHANNELS 3 Xrotation Yrotation Zrotation
						JOINT LeftForeArm
						{
							OFFSET 49.290169 0.000000 0.000000
							CHANNELS 3 Xrotation Yrotation Zrotation
							JOINT LeftHand
							{
								OFFSET 31.562012 0.000000 0.000000
								CHANNELS 3 Xrotation Yrotation Zrotation
								JOINT LeftHandThumb1
								{
									OFFSET 6.133995 -4.388519 7.076070
									CHANNELS 3 Xrotation Yrotation Zrotation
									JOINT LeftHandThumb2
									{
										OFFSET 6.037666 -3.485840 3.485847
										CHANNELS 3 Xrotation Yrotation Zrotation
										JOINT LeftHandThumb3
										{
											OFFSET 6.496506 -3.750763 3.750761
											CHANNELS 3 Xrotation Yrotation Zrotation
											JOINT LeftHandThumb4
											{
												OFFSET 5.616882 -3.242905 3.242910
												CHANNELS 3 Xrotation Yrotation Zrotation
												End Site
												{
													OFFSET -1.254608 7.132141 0.375429
												}
											}
										}
									}
								}
								JOINT LeftHandPinky1
								{
									OFFSET 18.920792 -0.453171 -11.426712
									CHANNELS 3 Xrotation Yrotation Zrotation
									JOINT LeftHandPinky2
									{
										OFFSET 4.919586 0.000000 0.000000
										CHANNELS 3 Xrotation Yrotation Zrotation
										JOINT LeftHandPinky3
										{
											OFFSET 5.233047 0.000000 0.000000
											CHANNELS 3 Xrotation Yrotation Zrotation
											JOINT LeftHandPinky4
											{
												OFFSET 5.571716 0.000000 0.000000
												CHANNELS 3 Xrotation Yrotation Zrotation
												End Site
												{
													OFFSET -3.459808 4.342407 -0.466164
												}
											}
										}
									}
								}
								JOINT LeftHandRing1
								{
									OFFSET 22.726120 -0.094986 -6.500475
									CHANNELS 3 Xrotation Yrotation Zrotation
									JOINT LeftHandRing2
									{
										OFFSET 6.408615 0.000000 0.000000
										CHANNELS 3 Xrotation Yrotation Zrotation
										JOINT LeftHandRing3
										{
											OFFSET 6.150223 0.000000 0.000000
											CHANNELS 3 Xrotation Yrotation Zrotation
											JOINT LeftHandRing4
											{
												OFFSET 6.145386 0.000000 0.000000
												CHANNELS 3 Xrotation Yrotation Zrotation
												End Site
												{
													OFFSET -3.671402 4.923981 -0.202372
												}
											}
										}
									}
								}
								JOINT LeftHandMiddle1
								{
									OFFSET 23.373947 0.000000 0.000001
									CHANNELS 3 Xrotation Yrotation Zrotation
									JOINT LeftHandMiddle2
									{
										OFFSET 6.996567 0.000000 0.000000
										CHANNELS 3 Xrotation Yrotation Zrotation
										JOINT LeftHandMiddle3
										{
											OFFSET 7.015945 0.000000 0.000000
											CHANNELS 3 Xrotation Yrotation Zrotation
											JOINT LeftHandMiddle4
											{
												OFFSET 7.721573 0.000000 0.000000
												CHANNELS 3 Xrotation Yrotation Zrotation
												End Site
												{
													OFFSET -4.651108 6.158463 0.251582
												}
											}
										}
									}
								}
								JOINT LeftHandIndex1
								{
									OFFSET 21.310577 -0.490082 6.209344
									CHANNELS 3 Xrotation Yrotation Zrotation
									JOINT LeftHandIndex2
									{
										OFFSET 7.536453 0.000000 0.000000
										CHANNELS 3 Xrotation Yrotation Zrotation
										JOINT LeftHandIndex3
										{
											OFFSET 7.512344 0.000000 0.000000
											CHANNELS 3 Xrotation Yrotation Zrotation
											JOINT LeftHandIndex4
											{
												OFFSET 10.212402 0.000000 0.000001
												CHANNELS 3 Xrotation Yrotation Zrotation
												End Site
												{
													OFFSET -5.180801 8.690506 1.388433
												}
											}
										}
									}
								}
							}
						}
					}
				}
				JOINT RightShoulder
				{
					OFFSET -17.399500 24.608795 1.168800
					CHANNELS 3 Xrotation Yrotation Zrotation
					JOINT RightArm
					{
						OFFSET -18.980635 5.765305 1.818600
						CHANNELS 3 Xrotation Yrotation Zrotation
						JOINT RightForeArm
						{
							OFFSET -49.290169 0.000000 0.000000
							CHANNELS 3 Xrotation Yrotation Zrotation
							JOINT RightHand
							{
								OFFSET -31.562012 0.000000 0.000000
								CHANNELS 3 Xrotation Yrotation Zrotation
								JOINT RightHandThumb1
								{
									OFFSET -6.133995 -4.388519 7.076070
									CHANNELS 3 Xrotation Yrotation Zrotation
									JOINT RightHandThumb2
									{
										OFFSET -6.037666 -3.485840 3.485847
										CHANNELS 3 Xrotation Yrotation Zrotation
										JOINT RightHandThumb3
										{
											OFFSET -6.496506 -3.750763 3.750761
											CHANNELS 3 Xrotation Yrotation Zrotation
											JOINT RightHandThumb4
											{
												OFFSET -5.616882 -3.242905 3.242910
												CHANNELS 3 Xrotation Yrotation Zrotation
												End Site
												{
													OFFSET 1.254608 7.132141 0.375429
												}
											}
										}
									}
								}
								JOINT RightHandIndex1
								{
									OFFSET -21.310577 -0.490082 6.209344
									CHANNELS 3 Xrotation Yrotation Zrotation
									JOINT RightHandIndex2
									{
										OFFSET -7.536453 0.000000 0.000000
										CHANNELS 3 Xrotation Yrotation Zrotation
										JOINT RightHandIndex3
										{
											OFFSET -7.512344 0.000000 0.000000
											CHANNELS 3 Xrotation Yrotation Zrotation
											JOINT RightHandIndex4
											{
												OFFSET -10.212402 0.000000 0.000001
												CHANNELS 3 Xrotation Yrotation Zrotation
												End Site
												{
													OFFSET 5.180801 8.690506 1.388433
												}
											}
										}
									}
								}
								JOINT RightHandMiddle1
								{
									OFFSET -23.373947 0.000000 0.000001
									CHANNELS 3 Xrotation Yrotation Zrotation
									JOINT RightHandMiddle2
									{
										OFFSET -6.996567 0.000000 0.000000
										CHANNELS 3 Xrotation Yrotation Zrotation
										JOINT RightHandMiddle3
										{
											OFFSET -7.015945 0.000000 0.000000
											CHANNELS 3 Xrotation Yrotation Zrotation
											JOINT RightHandMiddle4
											{
												OFFSET -7.721573 0.000000 0.000000
												CHANNELS 3 Xrotation Yrotation Zrotation
												End Site
												{
													OFFSET 4.651108 6.158463 0.251582
												}
											}
										}
									}
								}
								JOINT RightHandRing1
								{
									OFFSET -22.726120 -0.094986 -6.500475
									CHANNELS 3 Xrotation Yrotation Zrotation
									JOINT RightHandRing2
									{
										OFFSET -6.408615 0.000000 0.000000
										CHANNELS 3 Xrotation Yrotation Zrotation
										JOINT RightHandRing3
										{
											OFFSET -6.150223 0.000000 0.000000
											CHANNELS 3 Xrotation Yrotation Zrotation
											JOINT RightHandRing4
											{
												OFFSET -6.145386 0.000000 0.000000
												CHANNELS 3 Xrotation Yrotation Zrotation
												End Site
												{
													OFFSET 3.671402 4.923981 -0.202372
												}
											}
										}
									}
								}
								JOINT RightHandPinky1
								{
									OFFSET -18.920792 -0.453171 -11.426712
									CHANNELS 3 Xrotation Yrotation Zrotation
									JOINT RightHandPinky2
									{
										OFFSET -4.919586 0.000000 0.000000
										CHANNELS 3 Xrotation Yrotation Zrotation
										JOINT RightHandPinky3
										{
											OFFSET -5.233047 0.000000 0.000000
											CHANNELS 3 Xrotation Yrotation Zrotation
											JOINT RightHandPinky4
											{
												OFFSET -5.571716 0.000000 0.000000
												CHANNELS 3 Xrotation Yrotation Zrotation
												End Site
												{
													OFFSET 3.459808 4.342407 -0.466164
												}
											}
										}
									}
								}
							}
						}
					}
				}
			}
		}
	}
	JOINT LeftUpLeg
	{
		OFFSET 19.899099 -7.885101 -3.429500
		CHANNELS 3 Xrotation Yrotation Zrotation
		JOINT LeftLeg
		{
			OFFSET 1.745560 -36.997807 10.304700
			CHANNELS 3 Xrotation Yrotation Zrotation
			JOINT LeftFoot
			{
				OFFSET -1.745558 -29.803308 -13.615400
				CHANNELS 3 Xrotation Yrotation Zrotation
				JOINT LeftToeBase
				{
					OFFSET 1.181900 -18.539904 15.226099
					CHANNELS 3 Xrotation Yrotation Zrotation
					JOINT LeftToe_End
					{
						OFFSET -0.863701 1.402801 16.534700
						CHANNELS 3 Xrotation Yrotation Zrotation
						End Site
						{
							OFFSET 0.000000 16.616566 0.000000
						}
					}
				}
			}
		}
	}
	JOINT RightUpLeg
	{
		OFFSET -19.899099 -7.885101 -3.429500
		CHANNELS 3 Xrotation Yrotation Zrotation
		JOINT RightLeg
		{
			OFFSET -1.745560 -36.997807 10.304700
			CHANNELS 3 Xrotation Yrotation Zrotation
			JOINT RightFoot
			{
				OFFSET 1.745558 -29.803308 -13.615400
				CHANNELS 3 Xrotation Yrotation Zrotation
				JOINT RightToeBase
				{
					OFFSET -1.181900 -18.539904 15.226099
					CHANNELS 3 Xrotation Yrotation Zrotation
					JOINT RightToe_End
					{
						OFFSET 0.863701 1.402801 16.534700
						CHANNELS 3 Xrotation Yrotation Zrotation
						End Site
						{
							OFFSET 0.000000 16.616566 0.000000
						}
					}
				}
			}
		}
	}
}
MOTION
Frames: 4
Frame Time: 0.033333
-8.900207 69.641296 -42.939667 -20.403310 -47.277688 -2.158127 8.430279 3.026807 1.453005 3.038868 0.460132 -1.477836 1.216246 0.661981 0.432730 0.912099 -2.081188 -5.465799 5.620880 -6.825100 -12.416154 -0.000001 -0.000001 0.000000 1.890147 0.446624 -9.410518 -9.123946 5.581488 -42.712830 -6.863950 -44.215154 -4.388316 -0.891759 15.340134 0.885532 4.766515 -0.870668 -14.442459 15.732332 12.674820 8.828576 63.207049 -8.275006 4.266027 -0.000001 -0.000000 -0.000002 -8.868677 8.263637 -85.753872 -0.047919 -0.066874 -74.105654 -0.018478 -0.051654 -48.548773 -0.000000 -0.000000 -0.000000 -4.480797 3.914214 -90.412512 -1.097241 -0.675686 -62.310716 -0.104342 1.185548 -72.505880 0.000002 0.000003 0.000005 -5.483679 2.419540 -86.651024 -0.068346 -4.897252 -76.605503 1.509540 0.538124 -67.243288 0.000002 -0.000003 0.000004 -3.610993 -7.817626 -81.262661 0.005162 -4.388528 -67.459074 1.852066 0.687181 -69.585824 -0.000000 -0.000000 0.000001 -7.524222 48.515865 -16.711395 3.274763 -2.925760 -3.936181 -40.545584 56.920734 22.817133 -1.752585 -24.208632 -9.114063 24.918361 -21.323357 30.343027 9.041920 8.262092 -18.001792 -16.109843 -19.128875 -12.401668 -0.000000 0.000000 0.000002 -0.070714 -3.035198 61.424212 0.006472 4.395143 66.609186 1.919201 -0.429163 59.456687 -0.000002 -0.000001 -0.000001 -1.235410 -0.119475 68.274277 -0.077282 4.902830 84.501912 0.918966 -1.334254 32.710268 -0.000002 0.000001 -0.000004 0.883180 -4.613480 79.192949 -0.717760 1.136495 73.255766 -0.065388 -1.198568 39.144398 -0.000002 -0.000002 -0.000000 -3.944568 0.100024 86.764788 -0.029796 0.060124 54.415151 -0.007554 0.030579 25.829827 0.000003 -0.000000 0.000002 -16.316137 -2.725491 21.540987 34.405896 -8.975036 8.579617 -2.119416 4.341832 -31.639837 -0.563380 2.495867 -3.250475 0.000000 -0.000003 0.000000 -27.221022 -0.090023 -28.152597 85.189268 8.741759 4.313921 -35.579654 0.303359 -0.934687 -15.168221 5.600833 -5.054649 0.000000 0.000001 0.000000 
-9.139081 67.280884 -44.535370 -21.740115 -47.630959 -2.011160 8.608670 3.339348 1.303434 2.964257 0.555126 -1.639389 1.058516 0.770025 0.363853 1.913657 -2.273776 -5.787070 5.606599 -7.146040 -12.603597 0.000000 -0.000003 -0.000000 1.993356 0.572715 -10.028999 -13.011599 4.060649 -41.023165 -3.715788 -40.298878 -2.267465 -0.650740 12.316659 -1.323622 4.766520 -0.870674 -14.442457 15.732330 12.674828 8.828576 63.207049 -8.275001 4.266027 -0.000001 0.000002 -0.000002 -8.868669 8.263634 -85.753872 -0.047925 -0.066874 -74.105661 -0.018474 -0.051656 -48.548776 -0.000000 -0.000006 0.000000 -4.480796 3.914210 -90.412512 -1.097241 -0.675685 -62.310716 -0.104339 1.185551 -72.505880 0.000001 -0.000001 0.000002 -5.483674 2.419536 -86.651031 -0.068348 -4.897250 -76.605503 1.509546 0.538129 -67.243281 0.000003 -0.000002 0.000008 -3.610987 -7.817630 -81.262661 0.005160 -4.388529 -67.459081 1.852068 0.687175 -69.585824 -0.000000 -0.000002 0.000001 -9.288752 51.507915 -13.906301 5.735021 -2.959488 -5.397727 -43.500368 55.549368 24.005417 -1.774664 -24.509645 -8.397426 24.918359 -21.323364 30.343030 9.041925 8.262089 -18.001795 -16.109850 -19.128877 -12.401662 -0.000002 0.000000 0.000002 -0.070718 -3.035202 61.424219 0.006469 4.395134 66.609180 1.919204 -0.429158 59.456687 -0.000001 -0.000001 0.000001 -1.235405 -0.119483 68.274277 -0.077284 4.902829 84.501905 0.918970 -1.334246 32.710268 0.000001 0.000002 -0.000008 0.883179 -4.613483 79.192943 -0.717758 1.136494 73.255766 -0.065392 -1.198567 39.144395 -0.000001 -0.000001 -0.000003 -3.944568 0.100015 86.764788 -0.029797 0.060125 54.415151 -0.007553 0.030588 25.829825 0.000000 0.000000 0.000000 -18.364446 -4.453341 19.971610 39.357449 -7.821147 9.937849 -3.660819 4.384936 -28.834654 -0.067985 2.397800 -3.043868 -0.000000 -0.000002 0.000000 -31.013676 -1.048037 -29.783129 90.466334 10.583936 5.069936 -36.050906 1.869777 -5.221958 -16.497256 7.374069 -5.685631 0.000001 0.000001 -0.000000 
-9.515995 64.815666 -46.310757 -23.394335 -47.864439 -1.891738 8.940927 3.585531 1.120223 3.007778 0.611638 -1.807369 0.992587 0.862899 0.270952 2.849011 -2.486869 -6.084471 5.422737 -7.470290 -12.765173 -0.000000 -0.000002 0.000001 2.100974 0.728447 -10.682815 -16.885285 2.068136 -39.324732 -1.342775 -35.252966 -0.970836 -0.485177 8.607184 -3.301724 4.766515 -0.870665 -14.442461 15.732333 12.674831 8.828572 63.207049 -8.275004 4.266026 0.000005 0.000002 0.000001 -8.868674 8.263638 -85.753872 -0.047927 -0.066870 -74.105654 -0.018475 -0.051652 -48.548776 0.000000 0.000003 -0.000000 -4.480797 3.914217 -90.412519 -1.097242 -0.675684 -62.310709 -0.104341 1.185555 -72.505880 0.000002 0.000005 0.000004 -5.483678 2.419543 -86.651031 -0.068350 -4.897250 -76.605503 1.509542 0.538123 -67.243281 -0.000000 0.000000 0.000008 -3.610987 -7.817619 -81.262661 0.005159 -4.388530 -67.459081 1.852071 0.687172 -69.585824 -0.000001 0.000005 -0.000001 -11.347750 54.225599 -10.842060 8.028227 -3.180597 -6.714135 -46.202733 54.146622 24.970191 -1.776266 -24.752317 -7.665721 24.918359 -21.323361 30.343033 9.041922 8.262089 -18.001793 -16.109853 -19.128877 -12.401662 0.000003 -0.000001 0.000001 -0.070713 -3.035197 61.424219 0.006467 4.395136 66.609180 1.919203 -0.429161 59.456687 -0.000000 -0.000003 0.000003 -1.235407 -0.119477 68.274277 -0.077287 4.902829 84.501898 0.918968 -1.334253 32.710268 0.000001 -0.000000 -0.000004 0.883184 -4.613485 79.192949 -0.717759 1.136495 73.255760 -0.065397 -1.198565 39.144388 0.000003 -0.000004 -0.000002 -3.944568 0.100017 86.764788 -0.029794 0.060126 54.415151 -0.007550 0.030582 25.829824 -0.000000 -0.000002 0.000002 -21.060929 -5.405773 17.952420 44.660664 -7.116757 10.754400 -5.203567 4.008646 -23.440198 0.138533 2.476102 -3.104642 0.000000 0.000001 0.000000 -34.978970 -2.725116 -31.287761 95.920779 11.791887 5.256644 -36.582544 3.828019 -10.015906 -17.625170 9.187671 -6.101935 -0.000000 0.000005 0.000001 
-10.022267 62.101196 -48.207275 -25.405128 -47.964139 -1.795944 9.478411 3.743486 0.898686 3.212590 0.616569 -1.975955 1.059866 0.933360 0.149649 3.695324 -2.721103 -6.366276 5.056597 -7.800821 -12.901396 -0.000000 -0.000004 -0.000000 2.213328 0.918682 -11.358271 -19.841490 -0.120729 -37.789429 -0.091693 -30.682210 -0.671954 -0.342852 5.217758 -4.493321 4.766515 -0.870669 -14.442461 15.732332 12.674826 8.828570 63.207049 -8.274998 4.266029 -0.000000 -0.000000 -0.000002 -8.868674 8.263636 -85.753872 -0.047924 -0.066874 -74.105661 -0.018481 -0.051654 -48.548776 0.000004 0.000001 0.000001 -4.480799 3.914214 -90.412519 -1.097245 -0.675678 -62.310709 -0.104341 1.185555 -72.505873 -0.000001 -0.000002 0.000007 -5.483678 2.419538 -86.651031 -0.068351 -4.897251 -76.605503 1.509542 0.538128 -67.243288 0.000001 -0.000002 0.000008 -3.610992 -7.817626 -81.262661 0.005161 -4.388531 -67.459074 1.852074 0.687175 -69.585824 -0.000002 0.000001 -0.000001 -13.698546 56.637237 -7.531504 10.139374 -3.580296 -7.843641 -48.708046 52.714546 25.774952 -1.764777 -24.939901 -6.937695 24.918362 -21.323361 30.343033 9.041921 8.262090 -18.001795 -16.109853 -19.128874 -12.401664 0.000001 0.000002 0.000002 -0.070718 -3.035202 61.424219 0.006463 4.395134 66.609180 1.919209 -0.429156 59.456687 -0.000001 0.000000 -0.000001 -1.235405 -0.119476 68.274270 -0.077289 4.902825 84.501905 0.918966 -1.334247 32.710268 0.000001 0.000001 -0.000004 0.883180 -4.613481 79.192943 -0.717761 1.136495 73.255766 -0.065392 -1.198561 39.144391 -0.000002 0.000001 -0.000001 -3.944569 0.100017 86.764788 -0.029807 0.060129 54.415157 -0.007552 0.030589 25.829825 -0.000002 0.000000 0.000000 -23.264678 -5.698943 16.536113 48.536861 -7.117380 11.190246 -5.647583 3.563524 -19.359628 0.029618 2.669437 -3.359688 0.000000 -0.000001 -0.000001 -40.613695 -5.316824 -32.547511 102.076412 12.123448 4.121061 -35.586880 6.444484 -15.903231 -19.225260 9.986956 -6.578034 0.000000 0.000000 -0.000000 
